# xmcd
#
# Track frame offsets:
#       150
#       15103
#       27517
#       40615
#       54182
#       68370
#       84234
#       102275
#       117929
#       132129
#       149345
#       187436
#
# Disc length: 2577 seconds
#
# Revision: 0
# Processed by: cddbd v1.4PL0 Copyright (c) Steve Scherf et al.
# Submitted via: CD-DA_X-Tractor v0.21
#
DISCID=920a0f0c
DTITLE=Reckless Kelly - Millican
DYEAR=1900
DGENRE=
TTITLE0=Walton Love
TTITLE1=Back Around
TTITLE2=It's All Over
TTITLE3=I Still Do
TTITLE4=Black and White
TTITLE5=Waitin' on the Blues
TTITLE6=Hatax
TTITLE7=Hey Say May
TTITLE8=Drink Your Whiskey Down
TTITLE9=Baby's Gone Blues
TTITLE10=Time Bomb
TTITLE11=?
EXTD=
EXTT0=
EXTT1=
EXTT2=
EXTT3=
EXTT4=
EXTT5=
EXTT6=
EXTT7=
EXTT8=
EXTT9=
EXTT10=
EXTT11=
PLAYORDER=
